#!OML:ASF F:\VICON\USERDATA\INSTALL\rory3\rory3.ASF
:FULLY-SPECIFIED
:DEGREES
38
root -0.7546163101032419 16.81349696260885 25.076553657384622 2.58259034583104 -2.9556407320480376 -8.257783533663755
lfemur -37.72253848290204 8.244944003579453 -7.783907955297025
ltibia 109.22448398419775
lfoot 2.0709482211683037 -7.907885399797493
ltoes -12.44186545228302
rfemur -13.638308646169172 7.302433675700638 38.67599098881452
rtibia 50.91326999457882
rfoot -24.268022788200497 -17.210421855953577
rtoes -0.23640901827523253
lowerback 17.660542295434162 0.8683119640654521 6.4922076950107535
upperback 0.0736953571751936 2.633252262853319 3.9795114808328598
thorax -10.33134045470705 1.0708253742417964 -0.3168681389362642
lowerneck -21.3748023986322 -3.874964582534835 -1.697781873611289
upperneck 11.950153971113997 -4.9673044230207815 1.9131705604240317
head 7.126183635897453 -2.2835698026987274 0.34351804780777273
lclavicle -9.111454179880269e-16 1.2669223095020602e-15
lhumerus -52.52715068007737 -14.047628473441854 100.06397540135647
lradius 102.57111472369844
lwrist 37.81018253196693
lhand -32.14359255655965 0.5005793454484887
lfingers nan
lthumb -5.2689424102350815 30.45058078480227
rclavicle -1.0048102298152048e-15 1.1986554682432333e-15
rhumerus -48.42776423490402 9.230138249120719 -96.11686549967266
rradius 121.33360046272855
rwrist -17.805922029809253
rhand -18.135853650812383 36.781760642308434
rfingers nan
rthumb 8.432120445106737 7.4074881765282505
39
root -0.711501730619014 17.032620655490714 26.076699446953576 2.4030535345690716 -0.47145057436391513 -6.9553065340867395
lfemur -41.479206022673054 6.392250176482772 -11.39958524902101
ltibia 101.48332655859275
lfoot -0.10628503820606738 -5.6581940097535055
ltoes -15.161354563643343
rfemur -7.553099913914153 4.687165798758794 36.733057673268554
rtibia 47.21772536641123
rfoot -22.710817339748118 -16.53578386587485
rtoes -4.1254438501369
lowerback 17.05980449695324 1.0125904658422233 6.131339078357284
upperback -0.1861613194505779 2.8044721166891327 3.5140703071474015
thorax -10.085875500540967 1.1447480759777473 -0.7206198408850395
lowerneck -21.525187206486812 -4.295476296763197 -1.6035943998739661
upperneck 11.736082713995163 -5.602451545362453 1.9199662088999707
head 7.14107705928732 -2.5848089493256197 0.2255632958973557
lclavicle -9.059208744125035e-16 1.2666310354003099e-15
lhumerus -56.10272972889624 -13.574341263988115 100.40444701380031
lradius 104.05662029092139
lwrist 38.26776978979665
lhand -32.373917212149124 0.2002454743925253
lfingers nan
lthumb -5.5451516019077705 30.207142194547764
rclavicle -9.646458600272013e-16 1.2158810372803434e-15
rhumerus -47.07009382039927 10.04539972325471 -95.98862537063513
rradius 122.61337000165929
rwrist -16.93053520970769
rhand -18.14964043132212 37.70295381229185
rfingers nan
rthumb 8.383877573821398 8.292660295393041
40
root -0.6176329122298615 17.32981325090823 26.841308625397662 2.184950173001786 2.1907533280995772 -5.7917521759223245
lfemur -42.3863261357869 4.019607916607872 -14.278861421841336
ltibia 90.81716723953778
lfoot 1.149252809608913 -4.1458482611198875
ltoes -17.37994522239154
rfemur -1.4357191103434026 2.1170846291466874 34.545719629591545
rtibia 41.72493786840742
rfoot -17.374546944974963 -13.805950571886644
rtoes -8.069692953215656
lowerback 15.913561553566627 1.1038114206613594 5.833464430579172
upperback -0.5566756853987072 2.8724740673814666 2.97755558843014
thorax -9.583620516081393 1.1719143270517949 -1.1698681993451951
lowerneck -21.103709260793032 -4.701819835169455 -1.6133814364683734
upperneck 11.465011549188992 -6.1753638605537535 2.0257960953980154
head 7.040889187965517 -2.857598952020685 0.18466500846446626
lclavicle -8.827012790487413e-16 1.2789048164126322e-15
lhumerus -59.10102918160723 -12.819441837562321 100.35317785996125
lradius 105.48443369139551
lwrist 39.15358030463109
lhand -32.254405197805966 0.2375042408570764
lfingers nan
lthumb -5.521991794893833 30.120452577867194
rclavicle -9.428580800837936e-16 1.224368298321126e-15
rhumerus -46.02640073044091 10.775477351181342 -95.84260901988368
rradius 123.98160499637592
rwrist -13.671882937646652
rhand -18.262881377165346 37.93537261883293
rfingers nan
rthumb 8.184873547496158 8.221971140996555
41
root -0.4976194324446295 17.6878548476306 28.991037330550324 2.325437775168224 4.916081435851084 -5.189544967288038
lfemur -41.93081688749139 1.3500319582537954 -16.35788774883102
ltibia 78.00632604920925
lfoot 3.3138229769743077 -5.840611563067221
ltoes -18.10167438087874
rfemur 3.156240577636023 0.6908104751513633 33.01563318961046
rtibia 35.92114287197248
rfoot -7.001304651538415 -9.433726757058016
rtoes -8.506769620654907
lowerback 14.642314036262603 1.2652113418269422 6.103581243177331
upperback -1.037616591088385 3.082019295848028 2.526030012064658
thorax -9.175421489488606 1.2236141622826375 -1.8030245885963114
lowerneck -20.186134299185042 -5.076874629523348 -1.6604691958939544
upperneck 11.626402831487997 -6.703820498215275 2.0693993760209657
head 7.01979287504986 -3.1074267509871083 0.13878807405708415
lclavicle -8.678612716014033e-16 1.2864560619516519e-15
lhumerus -61.468530556116306 -11.810514441597011 100.02826185116253
lradius 106.86654114249464
lwrist 40.54102223571217
lhand -32.013489680581856 0.17958811830020538
lfingers nan
lthumb -5.30694328113926 30.047614921209544
rclavicle -9.220402286429928e-16 1.2322633469243104e-15
rhumerus -45.24799672244545 11.495067264504524 -95.77786886902192
rradius 125.172723833396
rwrist -12.909565071034766
rhand -18.36593618049332 37.65150892337939
rfingers nan
rthumb 8.152262969843935 8.105982620598855
